<svg width="44" height="44" viewBox="0 0 44 44" fill="none" xmlns="http://www.w3.org/2000/svg">
<circle cx="22" cy="22" r="22" fill="#000694"/>
<path d="M28 12H16C13.8 12 12 13.8 12 16V28C12 30.2 13.8 32 16 32H28C30.2 32 32 30.2 32 28V16C32 13.8 30.2 12 28 12ZM22 27C19.25 27 17 24.75 17 22C17 19.25 19.25 17 22 17C24.75 17 27 19.25 27 22C27 24.75 24.75 27 22 27ZM27.5 17.5C26.95 17.5 26.5 17.05 26.5 16.5C26.5 15.95 26.95 15.5 27.5 15.5C28.05 15.5 28.5 15.95 28.5 16.5C28.5 17.05 28.05 17.5 27.5 17.5Z" fill="white"/>
</svg>
