<svg width="44" height="44" viewBox="0 0 44 44" fill="none" xmlns="http://www.w3.org/2000/svg">
<circle cx="22" cy="22" r="22" fill="#000694"/>
<path d="M23.451 11.7076C24.5764 11.6904 25.6936 11.6994 26.8101 11.6904C26.8472 13.0867 27.4137 14.3435 28.315 15.2744L28.3137 15.273C29.2837 16.1468 30.546 16.7133 31.9375 16.8096L31.9567 16.8109V20.2732C30.6422 20.2402 29.4061 19.937 28.2917 19.4159L28.348 19.4392C27.809 19.1801 27.3532 18.914 26.9201 18.617L26.9558 18.6404C26.9476 21.1491 26.9641 23.6577 26.9387 26.1575C26.8678 27.4314 26.4443 28.5933 25.7651 29.5634L25.7788 29.5421C24.6431 31.1687 22.8033 32.2364 20.7113 32.2996H20.7017C20.6171 32.3037 20.5174 32.3058 20.417 32.3058C19.2277 32.3058 18.116 31.9744 17.1686 31.399L17.1961 31.4148C15.4718 30.3774 14.2825 28.6022 14.0625 26.5377L14.0597 26.5095C14.0425 26.0798 14.0343 25.6501 14.0515 25.2294C14.3883 21.9438 17.1411 19.4021 20.4872 19.4021C20.8632 19.4021 21.2317 19.4344 21.5899 19.4956L21.5514 19.4901C21.5686 20.7613 21.517 22.0332 21.517 23.3044C21.2262 23.1992 20.8907 23.138 20.5408 23.138C19.2565 23.138 18.1641 23.9589 17.7598 25.1049L17.7537 25.1256C17.6622 25.4191 17.6093 25.7567 17.6093 26.1059C17.6093 26.2476 17.6182 26.3878 17.6347 26.5253L17.6333 26.5088C17.8616 27.9154 19.0675 28.9769 20.5215 28.9769C20.5635 28.9769 20.6047 28.9762 20.646 28.9742H20.6398C21.6456 28.9439 22.5187 28.4029 23.0123 27.6033L23.0192 27.5909C23.2028 27.3352 23.3286 27.0258 23.3705 26.6896L23.3712 26.68C23.4572 25.1421 23.4228 23.6131 23.431 22.0751C23.4393 18.6129 23.4228 15.1589 23.4482 11.7056L23.451 11.7076Z" fill="white"/>
</svg>
