<svg width="28" height="28" viewBox="0 0 28 28" fill="none" xmlns="http://www.w3.org/2000/svg">
<g opacity="0.45">
<path fill-rule="evenodd" clip-rule="evenodd" d="M27.125 8.75C27.125 7.58975 26.6639 6.47675 25.844 5.656C25.0232 4.83613 23.9102 4.375 22.75 4.375C18.0933 4.375 9.90675 4.375 5.25 4.375C4.08975 4.375 2.97675 4.83613 2.156 5.656C1.33613 6.47675 0.875 7.58975 0.875 8.75C0.875 11.8003 0.875 16.1997 0.875 19.25C0.875 20.4102 1.33613 21.5232 2.156 22.344C2.97675 23.1639 4.08975 23.625 5.25 23.625C9.90675 23.625 18.0933 23.625 22.75 23.625C23.9102 23.625 25.0232 23.1639 25.844 22.344C26.6639 21.5232 27.125 20.4102 27.125 19.25C27.125 16.1997 27.125 11.8003 27.125 8.75ZM3.8885 8.55663C3.8885 8.55663 8.39038 12.264 11.214 14.5889C12.8319 15.9215 15.1681 15.9189 16.7834 14.5828C19.6157 12.2404 24.1448 8.49362 24.1448 8.49362C24.5166 8.18562 24.5691 7.6335 24.2611 7.26162C23.954 6.88975 23.4019 6.83725 23.0291 7.14525C23.0291 7.14525 18.5001 10.8911 15.6686 13.2344C14.6991 14.0359 13.2974 14.0376 12.3261 13.2379L5.00063 7.20562C4.62788 6.8985 4.07663 6.95188 3.7695 7.32463C3.46238 7.69738 3.51575 8.2495 3.8885 8.55663Z" fill="white"/>
</g>
</svg>
