<svg width="19" height="24" viewBox="0 0 19 24" fill="none" xmlns="http://www.w3.org/2000/svg">
<path d="M9.4921 0C8.2417 0.000513285 7.0037 0.247974 5.84918 0.728177C4.69465 1.20838 3.64634 1.91187 2.7644 2.79827C1.88246 3.68467 1.18427 4.73652 0.709894 5.89345C0.235521 7.05038 -0.00569195 8.28961 0.000101951 9.54C0.000101951 16.132 6.8001 22.176 8.8921 23.776C9.06772 23.921 9.28835 24.0003 9.5161 24.0003C9.74385 24.0003 9.96449 23.921 10.1401 23.776C12.2361 22.128 18.9801 16.132 18.9801 9.54C18.9859 8.28994 18.7448 7.05104 18.2707 5.89437C17.7966 4.7377 17.0987 3.68603 16.2172 2.79969C15.3357 1.91334 14.2879 1.20977 13.1338 0.729327C11.9797 0.248888 10.7422 0.00103971 9.4921 0ZM9.4921 13.484C8.70098 13.484 7.92762 13.2494 7.26982 12.8099C6.61202 12.3704 6.09933 11.7456 5.79658 11.0147C5.49383 10.2838 5.41462 9.47956 5.56896 8.70364C5.7233 7.92772 6.10426 7.21498 6.66367 6.65557C7.22308 6.09616 7.93582 5.7152 8.71174 5.56086C9.48766 5.40652 10.2919 5.48573 11.0228 5.78848C11.7537 6.09123 12.3785 6.60392 12.818 7.26172C13.2575 7.91952 13.4921 8.69287 13.4921 9.484C13.4921 10.5449 13.0707 11.5623 12.3205 12.3124C11.5704 13.0626 10.553 13.484 9.4921 13.484Z" fill="white" fill-opacity="0.45"/>
</svg>
